<?xml version="1.0" standalone="no"?><svg xmlns="http://www.w3.org/2000/svg" viewBox="0 0 1440 320"><path fill="#000b76" fill-opacity="1" d="M0,32L18.5,26.7C36.9,21,74,11,111,53.3C147.7,96,185,192,222,208C258.5,224,295,160,332,122.7C369.2,85,406,75,443,85.3C480,96,517,128,554,133.3C590.8,139,628,117,665,101.3C701.5,85,738,75,775,96C812.3,117,849,171,886,181.3C923.1,192,960,160,997,170.7C1033.8,181,1071,235,1108,234.7C1144.6,235,1182,181,1218,144C1255.4,107,1292,85,1329,96C1366.2,107,1403,149,1422,170.7L1440,192L1440,0L1421.5,0C1403.1,0,1366,0,1329,0C1292.3,0,1255,0,1218,0C1181.5,0,1145,0,1108,0C1070.8,0,1034,0,997,0C960,0,923,0,886,0C849.2,0,812,0,775,0C738.5,0,702,0,665,0C627.7,0,591,0,554,0C516.9,0,480,0,443,0C406.2,0,369,0,332,0C295.4,0,258,0,222,0C184.6,0,148,0,111,0C73.8,0,37,0,18,0L0,0Z"></path></svg>